<svg xmlns="http://www.w3.org/2000/svg" viewBox="0 0 600 600"><defs><style>.cls-1{fill:#1a1a1a;}</style></defs><title>dieren</title><g id="dieren"><path class="cls-1" d="M299.25,355.75c0,70.37,62,243.25,0,243.25S74.72,426.12,74.72,355.75,125,228.33,187,228.33,299.25,285.38,299.25,355.75Z"/><path class="cls-1" d="M523.79,355.75C523.79,426.12,361.26,599,299.25,599s0-172.88,0-243.25,50.27-127.42,112.27-127.42S523.79,285.38,523.79,355.75Z"/><ellipse class="cls-1" cx="299.25" cy="452.69" rx="133.65" ry="146.31"/><path class="cls-1" d="M571,118.33A73.87,73.87,0,1,1,481.12,65C495.94,61.22,503,.89,517.21,1,562.56,1.34,564.66,93.62,571,118.33Z"/><path class="cls-1" d="M28.62,120.11a73.87,73.87,0,1,0,89.84-53.32C103.64,63,96.6,2.67,82.37,2.78,37,3.12,34.92,95.4,28.62,120.11Z"/><path class="cls-1" d="M374.1,138.34c3,26-33.11,74-74,74a74,74,0,0,1-74-74c0-18.4,29.67-40,41-66.83C281,38.75,278.59,2,301,2S312.67,30,326,62.6C337,89.53,371.53,116.06,374.1,138.34Z"/></g></svg>