<svg xmlns="http://www.w3.org/2000/svg" viewBox="0 0 600 600"><defs><style>.cls-1{fill:#1a1a1a;}.cls-2,.cls-3,.cls-4{fill:#fff;stroke:#1a1a1a;stroke-miterlimit:10;}.cls-2{stroke-width:20px;}.cls-3{stroke-width:35px;}.cls-4{stroke-width:33px;}</style></defs><title>geschiedenis</title><g id="geschiedenis"><rect class="cls-1" x="370.13" y="217.42" width="200.5" height="30.46"/><path class="cls-2" d="M543.56,232.65H396.36v24.54c0,12.63,147.2,9.82,147.2,0Z"/><rect class="cls-1" x="370.13" y="494.06" width="200.5" height="30.46"/><path class="cls-2" d="M543.56,509.28H396.36V484.74c0-12.63,147.2-9.82,147.2,0Z"/><rect class="cls-3" x="420.47" y="277.91" width="50.12" height="195.42"/><rect class="cls-3" x="470.59" y="277.91" width="50.12" height="195.42"/><rect class="cls-1" x="47.59" y="217.61" width="200.5" height="30.46"/><path class="cls-2" d="M221,232.84H73.82v24.54c0,12.62,147.2,9.82,147.2,0Z"/><rect class="cls-1" x="47.59" y="494.24" width="200.5" height="30.46"/><path class="cls-2" d="M221,509.47H73.82V484.93c0-12.63,147.2-9.82,147.2,0Z"/><rect class="cls-3" x="97.93" y="278.1" width="50.12" height="195.42"/><rect class="cls-3" x="148.05" y="278.1" width="50.12" height="195.42"/><path class="cls-1" d="M473.7,220H592.17S605,214.26,605,207.2V146.83A12.88,12.88,0,0,0,592.17,134H473.7a12.87,12.87,0,0,0-12.83,12.83V207.2A12.87,12.87,0,0,0,473.7,220Z"/><path class="cls-1" d="M17.83,220H136.3a12.87,12.87,0,0,0,12.83-12.84V146.83A12.87,12.87,0,0,0,136.3,134H17.83A12.88,12.88,0,0,0,5,146.83V207.2Z"/><path class="cls-4" d="M170.82,213.48H452.59a12.88,12.88,0,0,0,12.84-12.84V180c0-7.06,16.68-12.3,9.62-12.3H149.92c-7.06,0,8.07,5.24,8.07,12.3v20.65A12.87,12.87,0,0,0,170.82,213.48Z"/></g></svg>