<svg xmlns="http://www.w3.org/2000/svg" viewBox="0 0 600 600"><defs><style>.cls-1{fill:#1a1a1a;}.cls-2{fill:#fff;}</style></defs><title>griezelen</title><g id="griezelen"><path class="cls-1" d="M304.21,582.43c-47.06,0-91.77-119.62-136.27-120.93-47.1-1.39-46.18,189.41-141.31,120.93C-12.54,554.24,3.07,441.85,3.07,411.84,3.07,184.39,137.9,0,304.21,0Z"/><path class="cls-1" d="M295.79,582.43c47.06,0,91.77-119.62,136.27-120.93,47.1-1.39,46.18,189.41,141.31,120.93,39.17-28.19,23.56-140.58,23.56-170.59C596.93,184.39,462.1,0,295.79,0Z"/><ellipse class="cls-2" cx="215.04" cy="196" rx="60.56" ry="72.28"/><ellipse class="cls-2" cx="386.64" cy="196" rx="60.56" ry="72.28"/></g></svg>