<svg xmlns="http://www.w3.org/2000/svg" viewBox="0 0 600 600"><defs><style>.cls-1{fill:#1a1a1a;}.cls-2{fill:none;stroke:#1a1a1a;stroke-miterlimit:10;stroke-width:20px;}</style></defs><title>oorlogVerzet</title><g id="oorlogVerzet"><circle class="cls-1" cx="91.82" cy="76.44" r="42.95"/><path class="cls-1" d="M463.59,0s-75,91.83-137.24,46.67c-85.1-61.71-164.63,63.8-164.63,63.8L269.6,315.26c66.4-14.75,29.91-118.95,180-44.91,67.42,33.26,114.06-83,114.06-83Z"/><path class="cls-2" d="M37.31,476.09c179.31-24.22,188.46,61.9,253.52,64,47.28,1.5,229-3.48,255.58,35.65"/><path class="cls-1" d="M160.31,428.71c-1.89,10.83-6.45,20.56-12.48,29.69-2.39,3.61-5.25,7.8-9.36,9.6a7.91,7.91,0,0,1-4.57.64c-.73-.16-2.23-1.54-2.61-1.54-1.84,0,.24,1.51.33,1.75.73,1.92,1.76,3.51,2.2,5.64,1.15,5.61,1.62,11.42,2.37,17.09l5,37.7c.53,4,3.07,7.5,7.5,7.5,3.64,0,8-3.46,7.5-7.5l-4.1-30.93c-1.22-9.23-1.9-18.73-3.79-27.85-1.58-7.59-6.34-15.26-14.43-17.07-8.69-1.94-17.27,3.9-17.65,13.05-.33,7.92,6,14.49,13.25,16.47,7.5,2,15.11-.29,21-5,6.35-5,10.86-12.34,14.75-19.35a83,83,0,0,0,9.52-25.9c1.65-9.44-12.8-13.49-14.46-4Z"/><path class="cls-1" d="M97,408.81c-2.4,16.16-3.06,34.7,3.75,50,5.64,12.62,20.25,22.2,34,16,11.77-5.27,15.31-22.68,5.07-31.25-13.22-11.05-29.09,3.55-35.74,14.73-4.42,7.43-7.23,15.75-9.85,23.94-3.15,9.84-6.25,19.68-9.37,29.52-2.93,9.23,11.55,13.17,14.46,4,4.44-14,8.1-28.54,13.78-42.06,2.3-5.48,5.28-11.16,9.65-15.28,1.64-1.54,7-5.82,8.1-2.07.83,2.81-1.56,5.05-4.14,5.35-5.15.61-9.44-3.56-11.69-7.71-6.31-11.64-5.46-28.53-3.58-41.17.6-4-1-8-5.24-9.23-3.53-1-8.63,1.24-9.22,5.24Z"/><path class="cls-1" d="M321.46,484.93a80.25,80.25,0,0,1-11.55,27.76,72.49,72.49,0,0,1-9.52,11.53,21.94,21.94,0,0,1-5.24,4.22,13.52,13.52,0,0,1-2.86.7c-3.66,1.56-.62,3.59.23,6.8a156.28,156.28,0,0,1,3.2,16.9,231.48,231.48,0,0,1,2.29,37c-.13,9.65,14.87,9.66,15,0,.25-19.06-1-39.43-6-57.9-2.08-7.6-7.06-14.63-15.52-15.37-7.74-.67-14.84,5-14.4,13.16.42,7.6,7.11,14,14.6,14.42,8.48.53,15.53-5.28,21-11.06a92.69,92.69,0,0,0,23.24-44.19c2-9.42-12.44-13.44-14.47-4Z"/><path class="cls-1" d="M245.2,473.6a209.07,209.07,0,0,0,1.17,26.83c.9,8.09,1.57,17,4.59,24.6,5.49,13.89,23,19,36.37,13.77,7-2.75,12.33-9.16,12-17a14.42,14.42,0,0,0-14-13.68c-14.37-.59-26,14.69-33.05,25.3-9.6,14.39-15.38,31.11-20.12,47.62-2.66,9.3,11.81,13.27,14.47,4,3.6-12.57,7.74-25,14.07-36.54a84.15,84.15,0,0,1,11.12-16,38.72,38.72,0,0,1,12.29-9.37c1.29,0,1.62,0,1,0-.36,0-.6-.17-.74-.57-.05.05-.3,1-.64,1.25a12.66,12.66,0,0,1-7.11,1.91c-4.76,0-9.78-1.37-11.75-6.11-2.63-6.31-3-14.36-3.7-21.09a209.43,209.43,0,0,1-1-24.92c.18-9.66-14.82-9.66-15,0Z"/><path class="cls-1" d="M390.81,466.24l27.89,46c1.79,2.95,8,11,5.84,14.83-.42.76-1.91,1-3.13,0-1.74-1.41-1.22-4.55-.27-6.21,1.11-2,2.27-2.9,3.93-1.29,1.9,1.84,1.23,4.67.2,6.74-3.09,6.21-10.51,9.24-16.13,12.61C395.63,547,387,559.42,377.63,571.73c-2.47,3.25-.49,8.36,2.69,10.26,3.82,2.3,7.82.52,10.26-2.69,5.37-7.07,10.45-14.45,16.91-20.59,6.62-6.28,15.2-9.56,22.29-15.2,6.61-5.27,12.07-13.28,11.46-22.09-.53-7.84-6.05-15.36-13.8-17.35-18.77-4.82-29.34,22.86-15.69,34.36,6.14,5.18,15.79,5.79,22.07.5s6.93-14,4.37-21.49c-3.45-10-10.36-19.12-15.83-28.13l-18.6-30.65c-5-8.24-18-.71-12.95,7.58Z"/><path class="cls-1" d="M465.78,473.91c-10.35,21.72-21.31,45.29-41.26,59.91l11,4.49a11.63,11.63,0,0,1,3.53-12.66,20.83,20.83,0,0,0,2.15-1.38c2.3-.37,1.76-1-1.63-1.84a5.41,5.41,0,0,1,.36,1.14c-.14,3.5,1.91,8.32,2.59,11.84a253.41,253.41,0,0,1,4.45,49.4c-.05,9.65,14.95,9.66,15,0a269.9,269.9,0,0,0-2.25-36.28c-.84-6.36-1.84-12.7-3.1-19-1-5-1.65-10.8-4.47-15.16-6.15-9.54-18.83-4.65-25.06,2a26.66,26.66,0,0,0-6,25.88c1.32,4.2,6.93,7.49,11,4.49,22.36-16.4,35-40.83,46.63-65.3,4.14-8.67-8.79-16.29-13-7.57Z"/><rect class="cls-1" x="188.07" y="102.38" width="32.08" height="354.28" rx="10" transform="translate(-106.3 126.42) rotate(-27.61)"/></g></svg>