<svg xmlns="http://www.w3.org/2000/svg" viewBox="0 0 600 600"><defs><style>.cls-1{fill:#1a1a1a;}.cls-2{fill:none;stroke:#fff;stroke-miterlimit:10;stroke-width:13px;}</style></defs><title>psychologie</title><g id="psychologie"><path class="cls-1" d="M484,117.08C454.73,64.28,450.14,1,280.86,1,158.33,1,88.43,59.19,61.6,117.08c-18.13,39.13-28.06,139.76,0,172.5C168,413.72,126.09,542.7,151.88,571.72,186.93,611.14,355,595.9,355,595.9c33.86-154.77,109.3-94.19,129-101.57,25.79-9.67,13.73-43.4,17.73-58,2.85-10.43,19.82-27.89,19.35-38.69C520.52,385,505,342.79,506.57,338s53.5-8.84,58-29c6.17-27.49-50.86-68-62.88-93.51C491.08,192.83,496.11,138.93,484,117.08Z"/><path class="cls-2" d="M427.57,118.69s-40.3-74.16-148.32-74.16c-177.34,0-224.1,170.89-132.2,243.44"/></g></svg>