<svg xmlns="http://www.w3.org/2000/svg" viewBox="0 0 600 600"><defs><style>.cls-1{fill:#1a1a1a;}.cls-2{fill:#fff;}</style></defs><title>spanning</title><g id="spanning"><path class="cls-1" d="M19,473.52c9.38-26.59,51.6-153.24,59.42-195.46,3.22-17.4-53.17-1.56-70.37-7.82-9.18-3.34,0-39.09,0-39.09S116,210.82,108.16,192.06c-8.88-21.31-56.25-34.47-32.84-36,73.49-4.7,38.14-33.9,54.73-34.41,51.6-1.56,467.53,0,467.53,0V224.9s-70.37,4.69-125.09,0c0,0-1.21,42.11-12.51,45.34-11,3.13-65.68,1.57-65.68,1.57s-10.94,64.1-28.14,73.49c-29.39,16-67,14.7-134.48,7.81,0,0-41.21,106.36-43.78,143.86,0,0,13,31.88,6.26,39.09C194.16,536.06,3.55,517.36,19,473.52Z"/><path class="cls-2" d="M361.37,282.54c1.83-42.41-47.64-48.06-47.83-47.43-18.57,63.75,20.83,85.11-2.64,79.94-70.68-15.55-30.19-80.74-36.75-79.16-26.77,6.48-46.65,24.71-46.65,46.65,0,27.33,30,49.48,66.94,49.48S360.2,309.84,361.37,282.54Z"/><rect class="cls-2" x="170.96" y="163.8" width="129.04" height="23.2" rx="11"/></g></svg>