<svg xmlns="http://www.w3.org/2000/svg" viewBox="0 0 600 600"><defs><style>.cls-1{fill:#1a1a1a;}</style></defs><title>vriendschapLiefde</title><g id="vriendschapLiefde"><circle class="cls-1" cx="270.65" cy="189.34" r="60.87"/><rect class="cls-1" x="201.21" y="259.35" width="138.88" height="172.02" rx="18.91" transform="translate(541.3 690.72) rotate(-180)"/><circle class="cls-1" cx="94.55" cy="272.08" r="82.72"/><rect class="cls-1" x="0.19" y="367.22" width="188.73" height="233.78" rx="25.69" transform="translate(189.11 968.22) rotate(-180)"/><path class="cls-1" d="M431.89,237.29c-.54.7-.82,1.08-.82,1.08l-.88-1.19Z"/><path class="cls-1" d="M576.36,184.27c-29.45,53.35-141.53,49.11-161.91,47.89l-1.71-.11-1-1.39C399.83,214.07,336.51,121.49,366,68.14,386.13,31.59,426.54-12,461,5.86c43.47,22.51,44.47,50,40.06,66.15,11.34-12.36,35.1-26.14,77.32-1.36C611.87,90.29,596.53,147.72,576.36,184.27Z"/><path class="cls-1" d="M434.53,425.66l-.61.8-.66-.88Z"/><path class="cls-1" d="M554.84,405.16c-21.88,39.65-105.16,36.5-120.31,35.59l-1.27-.08-.74-1c-8.85-12.33-55.9-81.13-34-120.77,15-27.16,45-59.54,70.63-46.28,32.3,16.73,33.05,37.13,29.77,49.16,8.42-9.19,26.08-19.43,57.45-1C581.23,335.33,569.84,378,554.84,405.16Z"/><path class="cls-1" d="M433.26,425.58l-1.1-.09s.13-.33.36-.95Z"/><path class="cls-1" d="M361.76,573.42l-.4.52-.43-.58Z"/><path class="cls-1" d="M440.55,550.11c-14.33,26-68.87,23.9-78.79,23.31l-.83-.06-.49-.67c-5.79-8.08-36.61-53.13-22.28-79.09,9.82-17.79,29.48-39,46.26-30.31,21.15,11,21.64,24.32,19.5,32.19,5.51-6,17.08-12.72,37.62-.66C457.83,504.38,450.37,532.32,440.55,550.11Z"/><path class="cls-1" d="M360.93,573.36l-.72-.05.23-.62Z"/></g></svg>