<svg id="avontuur" xmlns="http://www.w3.org/2000/svg" viewBox="0 0 600 600"><defs><style>.cls-1,.cls-2,.cls-5,.cls-6{fill:#fff;}.cls-1,.cls-2,.cls-3,.cls-5,.cls-6{stroke:#1a1a1a;}.cls-1,.cls-2,.cls-3,.cls-4,.cls-5,.cls-6,.cls-9{stroke-miterlimit:10;}.cls-1{stroke-width:31px;}.cls-2{stroke-width:26px;}.cls-3{fill:none;stroke-width:13px;}.cls-4,.cls-7,.cls-8,.cls-9{fill:#1a1a1a;}.cls-4,.cls-9{stroke:#fff;}.cls-4{stroke-width:3px;}.cls-5{stroke-width:10px;}.cls-6{stroke-width:7px;}.cls-8{font-size:68.69px;font-family:Avenir-Black, Avenir;font-weight:800;}</style></defs><title>avontuur</title><ellipse class="cls-1" cx="299.94" cy="325.05" rx="256.21" ry="253.36"/><ellipse class="cls-2" cx="299.94" cy="325.05" rx="211.71" ry="215.8"/><ellipse class="cls-3" cx="299.94" cy="325.05" rx="107.77" ry="109.85"/><g id="naald"><polygon class="cls-4" points="300.49 326 356.24 324.94 329.35 439.58 302.47 554.22 273.6 440.64 244.73 327.07 300.49 326"/><polygon class="cls-4" points="299.4 324.09 243.65 325.16 270.53 210.52 297.42 95.88 326.28 209.45 355.15 323.03 299.4 324.09"/><ellipse class="cls-5" cx="300.71" cy="325.68" rx="44.5" ry="45.36"/><ellipse class="cls-6" cx="300.71" cy="325.68" rx="25.03" ry="25.51"/></g><polygon class="cls-7" points="342.07 228.26 330.91 223.86 345.63 201.98 360.36 180.1 356.8 206.38 353.24 232.66 342.07 228.26"/><polygon class="cls-7" points="216.1 260.73 224.58 252.11 202.45 238.14 180.32 224.17 193.98 246.76 207.63 269.35 216.1 260.73"/><polygon class="cls-7" points="393.08 388.59 384.6 397.2 406.73 411.18 428.86 425.15 415.21 402.56 401.55 379.97 393.08 388.59"/><polygon class="cls-7" points="252.9 429.98 264.06 434.38 249.33 456.26 234.61 478.14 238.17 451.86 241.73 425.57 252.9 429.98"/><text class="cls-8" transform="matrix(1.02, -0.41, 0.36, 0.93, 191.97, 71.84)">N</text><polygon class="cls-9" points="397.79 287.11 390.47 267.55 443.39 258.17 496.31 248.79 450.71 277.73 405.11 306.67 397.79 287.11"/><polygon class="cls-9" points="202.86 361.87 210.18 381.43 157.26 390.81 104.34 400.18 149.94 371.25 195.53 342.31 202.86 361.87"/></svg>