<svg xmlns="http://www.w3.org/2000/svg" viewBox="0 0 600 600"><defs><style>.cls-1{fill:#1a1a1a;}.cls-2{fill:#999;}.cls-3{fill:#fff;stroke:#333;stroke-width:8.33px;opacity:0.94;}.cls-3,.cls-4{stroke-miterlimit:10;}.cls-4{fill:none;stroke:#ccc;stroke-width:12.88px;}</style></defs><title>detective</title><g id="detective"><g id="schoen"><path class="cls-1" d="M542.79,296.92c5.43-10.85-1.67-112.6-16.26-146.42C508.8,109.42,442.31,41.15,401.8,22.16c-21.34-10-72.47-16.84-94-7.23-17.22,7.7-46.42,36.35-52.42,54.23C246,97,245.56,159,255.39,186.65,273,236.26,371.07,363.8,374.69,360.18S542.79,296.92,542.79,296.92Z"/><path class="cls-1" d="M542,372.54,404,441.52S435.12,550.18,460.7,573.2c18.79,16.91,73.82,20,96.45,10.45,16.29-6.87,45.39-51.91,45.39-58.52C602.54,506.31,542,372.54,542,372.54Z"/></g><g id="vergrootglas"><rect class="cls-1" x="80.19" y="300.15" width="38.92" height="246.86" transform="translate(-128.48 794.13) rotate(-135.14)"/><rect class="cls-2" x="198.56" y="278.82" width="22.26" height="66.66" transform="translate(138.16 681.34) rotate(-135.14)"/><circle class="cls-3" cx="316.59" cy="201.69" r="123.86"/><path class="cls-4" d="M244.9,197.28c5.24-47.18,52.34-80.61,105.32-74.73"/></g></g></svg>