<svg xmlns="http://www.w3.org/2000/svg" viewBox="0 0 600 600"><defs><style>.cls-1{fill:#1a1a1a;}.cls-2{fill:none;stroke:#fff;stroke-miterlimit:10;stroke-width:13px;}</style></defs><title>sport</title><g id="sport"><circle class="cls-1" cx="221.3" cy="220.3" r="220.3"/><path class="cls-2" d="M157.05,9.53s33.3,208.09,49,264.13c14.07,50.21,68.42,160.46,68.42,160.46"/><path class="cls-2" d="M36.83,340.74s156.46,11.42,193.61-1.53c166.18-57.93,209.14-148.72,209.14-148.72"/><path class="cls-2" d="M331.17,29.31s19.71,62.92-.11,107.14c-32.34,72.15-34.21,126-27.2,171.52,10.43,67.83,85.59,44.67,85.59,44.67"/><path class="cls-2" d="M24.63,122.73s20.7,70,59.46,99.09c63.26,47.44,89.26,80.28,105.19,123.49,23.74,64.4-40.55,77.47-40.55,77.47"/><circle class="cls-1" cx="349.38" cy="563.38" r="37.05"/><path class="cls-1" d="M535.83,426.28c8.68,11.54-.87,56.6-.87,56.6S602.25,494.49,599.9,512c-3.5,26.08-94.26,37.22-94.26,37.22S409,555.22,392,532.08c-15.21-20.66,15.51-101.46,15.51-101.46s39.93-95.47,65.86-90.94c17.72,3.1,8.13,72,8.13,72S527.17,414.76,535.83,426.28Z"/></g></svg>