<svg xmlns="http://www.w3.org/2000/svg" viewBox="0 0 600 600"><defs><style>.cls-1{fill:#1a1a1a;}.cls-2{fill:#fff;}</style></defs><title>sprookjes</title><g id="sprookjes"><path class="cls-1" d="M43.47,502.71c0-33.29,48.66-62.64,122.67-80C210.55,412.34,167.62,0,321.71,0,518,0,524.58,80.49,504.36,76.81c-169-30.72-40.48,203.9-29,327.75.79,8.5,17.53,22,25.18,24.25C561.31,446.5,600,473,600,502.71c0,53.26-124.57,96.44-278.24,96.44S43.47,556,43.47,502.71Z"/><path class="cls-2" d="M323.42,505.33C367,505.37,495,480.77,495,487.74l.85,14.78c0,7-8.53,35.18-172.4,35.18-177.53,0-169-29.62-169-36.59l-.85-13.37C153.57,480.77,280.3,505.29,323.42,505.33Z"/><polygon class="cls-2" points="376.54 327.36 429.76 326.45 398.11 369.24 415.42 419.58 364.94 402.7 322.42 434.71 322.87 381.49 279.28 350.95 330.04 334.93 345.62 284.03 376.54 327.36"/><polygon class="cls-2" points="339.06 187.02 367.94 222.48 322.23 223.83 297.43 262.25 282.02 219.19 237.81 207.48 274 179.52 271.48 133.85 309.25 159.63 351.9 143.12 339.06 187.02"/><polygon class="cls-1" points="128.18 85.72 190.16 92.06 147.43 137.4 160.55 198.3 104.22 171.67 50.35 202.97 58.27 141.17 11.86 99.61 73.08 88.05 98.27 31.06 128.18 85.72"/></g></svg>